<mxfile host="65bd71144e">
    <diagram name="Page-1" id="UMM78bcty8Yh2Ipk4xUr">
        <mxGraphModel dx="2594" dy="1113" grid="1" gridSize="11" guides="1" tooltips="1" connect="1" arrows="1" fold="1" page="1" pageScale="1" pageWidth="850" pageHeight="1100" math="0" shadow="0">
            <root>
                <mxCell id="0"/>
                <mxCell id="1" parent="0"/>
                <mxCell id="FPNfaOGOEIjZuPGmD0JC-1" value="" style="endArrow=none;dashed=1;html=1;strokeWidth=2;rounded=0;curved=1;strokeColor=#217893;" parent="1" edge="1">
                    <mxGeometry width="50" height="50" relative="1" as="geometry">
                        <mxPoint x="473" y="165" as="sourcePoint"/>
                        <mxPoint x="473" y="165" as="targetPoint"/>
                        <Array as="points">
                            <mxPoint x="583" y="231"/>
                            <mxPoint x="638" y="275"/>
                            <mxPoint x="671" y="330"/>
                            <mxPoint x="693" y="396"/>
                            <mxPoint x="715" y="484"/>
                            <mxPoint x="682" y="572"/>
                            <mxPoint x="660" y="616"/>
                            <mxPoint x="561" y="704"/>
                            <mxPoint x="440" y="759"/>
                            <mxPoint x="286" y="770"/>
                            <mxPoint x="187" y="748"/>
                            <mxPoint x="88" y="704"/>
                            <mxPoint x="-22" y="605"/>
                            <mxPoint x="-55" y="473"/>
                            <mxPoint x="-33" y="264"/>
                            <mxPoint x="132" y="187"/>
                            <mxPoint x="308" y="143"/>
                        </Array>
                    </mxGeometry>
                </mxCell>
                <mxCell id="FPNfaOGOEIjZuPGmD0JC-3" value="&lt;font style=&quot;font-size: 16px;&quot;&gt;Database&lt;/font&gt;" style="shape=cylinder3;whiteSpace=wrap;html=1;boundedLbl=1;backgroundOutline=1;size=15;fontSize=16;points=[[0,0,0,0,15],[0,0,0,0,30],[0,0,0,0,60],[0,0.5,0,0,0],[0,1,0,0,-15],[0.145,0,0,0,4.35],[0.145,1,0,0,-4.35],[0.5,0,0,0,0],[0.5,1,0,0,0],[0.855,0,0,0,4.35],[0.855,1,0,0,-4.35],[1,0,0,0,15],[1,0,0,0,30],[1,0,0,0,60],[1,0.5,0,0,0],[1,1,0,0,-15]];" parent="1" vertex="1">
                    <mxGeometry x="220" y="385" width="209" height="99" as="geometry"/>
                </mxCell>
                <mxCell id="FPNfaOGOEIjZuPGmD0JC-6" value="&lt;font style=&quot;font-size: 16px;&quot;&gt;Log In&lt;/font&gt;" style="ellipse;whiteSpace=wrap;html=1;strokeColor=#217893;" parent="1" vertex="1">
                    <mxGeometry x="77" y="272" width="132" height="69" as="geometry"/>
                </mxCell>
                <mxCell id="FPNfaOGOEIjZuPGmD0JC-14" value="Login From" style="rounded=0;whiteSpace=wrap;html=1;fontSize=16;labelBackgroundColor=none;fillColor=#217893;strokeColor=#217893;" parent="1" vertex="1">
                    <mxGeometry x="-22" y="99" width="120" height="60" as="geometry"/>
                </mxCell>
                <mxCell id="FPNfaOGOEIjZuPGmD0JC-30" value="&lt;font style=&quot;font-size: 16px;&quot;&gt;Register&lt;/font&gt;" style="ellipse;whiteSpace=wrap;html=1;strokeColor=#217893;" parent="1" vertex="1">
                    <mxGeometry x="274" y="192" width="132" height="69" as="geometry"/>
                </mxCell>
                <mxCell id="FPNfaOGOEIjZuPGmD0JC-32" value="" style="endArrow=classic;html=1;rounded=0;exitX=0.5;exitY=1;exitDx=0;exitDy=0;entryX=0.381;entryY=0.029;entryDx=0;entryDy=0;entryPerimeter=0;strokeColor=#e1955f;" parent="1" source="FPNfaOGOEIjZuPGmD0JC-33" target="FPNfaOGOEIjZuPGmD0JC-30" edge="1">
                    <mxGeometry width="50" height="50" relative="1" as="geometry">
                        <mxPoint x="363" y="66" as="sourcePoint"/>
                        <mxPoint x="352" y="187" as="targetPoint"/>
                        <Array as="points"/>
                    </mxGeometry>
                </mxCell>
                <mxCell id="FPNfaOGOEIjZuPGmD0JC-33" value="New User Registration&lt;br&gt;From" style="rounded=0;whiteSpace=wrap;html=1;fontSize=16;strokeColor=#217893;fillColor=#217893;" parent="1" vertex="1">
                    <mxGeometry x="264" y="44" width="120" height="60" as="geometry"/>
                </mxCell>
                <mxCell id="FPNfaOGOEIjZuPGmD0JC-34" value="" style="endArrow=classic;html=1;rounded=0;exitX=0.4;exitY=1.018;exitDx=0;exitDy=0;entryX=0.5;entryY=0;entryDx=0;entryDy=0;entryPerimeter=0;exitPerimeter=0;strokeColor=#e1955f;" parent="1" source="FPNfaOGOEIjZuPGmD0JC-30" target="FPNfaOGOEIjZuPGmD0JC-3" edge="1">
                    <mxGeometry width="50" height="50" relative="1" as="geometry">
                        <mxPoint x="374" y="297" as="sourcePoint"/>
                        <mxPoint x="476" y="412" as="targetPoint"/>
                        <Array as="points"/>
                    </mxGeometry>
                </mxCell>
                <mxCell id="FPNfaOGOEIjZuPGmD0JC-40" value="&lt;font style=&quot;font-size: 16px;&quot;&gt;List Item&lt;/font&gt;" style="ellipse;whiteSpace=wrap;html=1;strokeColor=#217893;" parent="1" vertex="1">
                    <mxGeometry x="396" y="261" width="132" height="69" as="geometry"/>
                </mxCell>
                <mxCell id="FPNfaOGOEIjZuPGmD0JC-41" value="" style="endArrow=classic;html=1;rounded=0;exitX=0.5;exitY=1;exitDx=0;exitDy=0;entryX=0.706;entryY=0.007;entryDx=0;entryDy=0;entryPerimeter=0;strokeColor=#e1955f;" parent="1" source="FPNfaOGOEIjZuPGmD0JC-42" target="FPNfaOGOEIjZuPGmD0JC-40" edge="1">
                    <mxGeometry width="50" height="50" relative="1" as="geometry">
                        <mxPoint x="514.05" y="76.47" as="sourcePoint"/>
                        <mxPoint x="517" y="275" as="targetPoint"/>
                        <Array as="points"/>
                    </mxGeometry>
                </mxCell>
                <mxCell id="FPNfaOGOEIjZuPGmD0JC-42" value="New Item Form" style="rounded=0;whiteSpace=wrap;html=1;fontSize=16;strokeColor=#217893;fillColor=#217893;" parent="1" vertex="1">
                    <mxGeometry x="495" y="77" width="120" height="60" as="geometry"/>
                </mxCell>
                <mxCell id="FPNfaOGOEIjZuPGmD0JC-43" value="" style="endArrow=classic;html=1;rounded=0;exitX=0.4;exitY=1.018;exitDx=0;exitDy=0;entryX=0.789;entryY=0;entryDx=0;entryDy=0;entryPerimeter=0;exitPerimeter=0;strokeColor=#e1955f;" parent="1" source="FPNfaOGOEIjZuPGmD0JC-40" target="FPNfaOGOEIjZuPGmD0JC-3" edge="1">
                    <mxGeometry width="50" height="50" relative="1" as="geometry">
                        <mxPoint x="525.05" y="307.47" as="sourcePoint"/>
                        <mxPoint x="362.99999999999983" y="384.9999999999998" as="targetPoint"/>
                        <Array as="points"/>
                    </mxGeometry>
                </mxCell>
                <mxCell id="FPNfaOGOEIjZuPGmD0JC-45" value="&lt;font style=&quot;font-size: 16px;&quot;&gt;Search for Item&lt;/font&gt;" style="ellipse;whiteSpace=wrap;html=1;strokeColor=#217893;" parent="1" vertex="1">
                    <mxGeometry x="495" y="341" width="132" height="69" as="geometry"/>
                </mxCell>
                <mxCell id="FPNfaOGOEIjZuPGmD0JC-46" value="" style="endArrow=classic;html=1;rounded=0;exitX=1;exitY=0;exitDx=0;exitDy=30;exitPerimeter=0;strokeColor=#e1955f;" parent="1" source="FPNfaOGOEIjZuPGmD0JC-3" target="FPNfaOGOEIjZuPGmD0JC-45" edge="1">
                    <mxGeometry width="50" height="50" relative="1" as="geometry">
                        <mxPoint x="440" y="434" as="sourcePoint"/>
                        <mxPoint x="879.9960000000001" y="395.9960000000001" as="targetPoint"/>
                        <Array as="points"/>
                    </mxGeometry>
                </mxCell>
                <mxCell id="FPNfaOGOEIjZuPGmD0JC-48" value="Item Search and&amp;nbsp;&lt;br&gt;Results" style="rounded=0;whiteSpace=wrap;html=1;fontSize=16;labelBackgroundColor=none;strokeColor=#217893;fillColor=#217893;" parent="1" vertex="1">
                    <mxGeometry x="649" y="176" width="165" height="60" as="geometry"/>
                </mxCell>
                <mxCell id="FPNfaOGOEIjZuPGmD0JC-50" value="&lt;span style=&quot;font-size: 16px;&quot;&gt;View/ Edit/ &lt;br&gt;Purchase/&amp;nbsp;Bid/ Cancel&lt;br&gt;&lt;/span&gt;" style="ellipse;whiteSpace=wrap;html=1;strokeColor=#217893;" parent="1" vertex="1">
                    <mxGeometry x="462" y="506" width="176" height="88" as="geometry"/>
                </mxCell>
                <mxCell id="FPNfaOGOEIjZuPGmD0JC-53" value="Item for Sale" style="rounded=0;whiteSpace=wrap;html=1;fontSize=16;labelBackgroundColor=none;strokeColor=#217893;fillColor=#217893;" parent="1" vertex="1">
                    <mxGeometry x="606.5" y="715" width="121" height="55" as="geometry"/>
                </mxCell>
                <mxCell id="FPNfaOGOEIjZuPGmD0JC-55" value="" style="endArrow=classic;startArrow=classic;html=1;rounded=0;exitX=0.4;exitY=0;exitDx=0;exitDy=0;exitPerimeter=0;entryX=1;entryY=0.667;entryDx=0;entryDy=0;entryPerimeter=0;strokeColor=#e1955f;" parent="1" source="FPNfaOGOEIjZuPGmD0JC-50" target="FPNfaOGOEIjZuPGmD0JC-3" edge="1">
                    <mxGeometry width="50" height="50" relative="1" as="geometry">
                        <mxPoint x="495" y="462" as="sourcePoint"/>
                        <mxPoint x="440" y="451" as="targetPoint"/>
                    </mxGeometry>
                </mxCell>
                <mxCell id="FPNfaOGOEIjZuPGmD0JC-56" value="" style="endArrow=classic;startArrow=classic;html=1;rounded=0;entryX=0.766;entryY=0.949;entryDx=0;entryDy=0;entryPerimeter=0;exitX=0.395;exitY=-0.067;exitDx=0;exitDy=0;exitPerimeter=0;strokeColor=#e1955f;" parent="1" source="FPNfaOGOEIjZuPGmD0JC-53" target="FPNfaOGOEIjZuPGmD0JC-50" edge="1">
                    <mxGeometry width="50" height="50" relative="1" as="geometry">
                        <mxPoint x="671" y="715" as="sourcePoint"/>
                        <mxPoint x="411" y="491" as="targetPoint"/>
                    </mxGeometry>
                </mxCell>
                <mxCell id="FPNfaOGOEIjZuPGmD0JC-60" value="&lt;span style=&quot;font-size: 16px;&quot;&gt;View/ Delete&lt;br&gt;Rating&lt;br&gt;&lt;/span&gt;" style="ellipse;whiteSpace=wrap;html=1;strokeColor=#217893;" parent="1" vertex="1">
                    <mxGeometry x="328.5" y="583" width="144.5" height="77" as="geometry"/>
                </mxCell>
                <mxCell id="FPNfaOGOEIjZuPGmD0JC-61" value="&amp;nbsp;Item Rating" style="rounded=0;whiteSpace=wrap;html=1;fontSize=16;labelBackgroundColor=none;strokeColor=#217893;fillColor=#217893;" parent="1" vertex="1">
                    <mxGeometry x="418" y="792" width="121" height="60" as="geometry"/>
                </mxCell>
                <mxCell id="FPNfaOGOEIjZuPGmD0JC-62" value="" style="endArrow=classic;startArrow=classic;html=1;rounded=0;exitX=0.5;exitY=0;exitDx=0;exitDy=0;entryX=0.548;entryY=1.038;entryDx=0;entryDy=0;entryPerimeter=0;strokeColor=#e1955f;" parent="1" source="FPNfaOGOEIjZuPGmD0JC-60" target="FPNfaOGOEIjZuPGmD0JC-3" edge="1">
                    <mxGeometry width="50" height="50" relative="1" as="geometry">
                        <mxPoint x="374" y="496.29" as="sourcePoint"/>
                        <mxPoint x="320.69399999999996" y="484.00299999999976" as="targetPoint"/>
                    </mxGeometry>
                </mxCell>
                <mxCell id="FPNfaOGOEIjZuPGmD0JC-63" value="" style="endArrow=classic;startArrow=classic;html=1;rounded=0;exitX=0.395;exitY=-0.067;exitDx=0;exitDy=0;exitPerimeter=0;entryX=0.64;entryY=0.987;entryDx=0;entryDy=0;entryPerimeter=0;strokeColor=#e1955f;" parent="1" source="FPNfaOGOEIjZuPGmD0JC-61" target="FPNfaOGOEIjZuPGmD0JC-60" edge="1">
                    <mxGeometry width="50" height="50" relative="1" as="geometry">
                        <mxPoint x="550" y="749.29" as="sourcePoint"/>
                        <mxPoint x="407" y="660" as="targetPoint"/>
                    </mxGeometry>
                </mxCell>
                <mxCell id="FPNfaOGOEIjZuPGmD0JC-71" value="&lt;span style=&quot;font-size: 16px;&quot;&gt;View Item &lt;br&gt;Results&lt;/span&gt;" style="ellipse;whiteSpace=wrap;html=1;strokeColor=#217893;" parent="1" vertex="1">
                    <mxGeometry x="44" y="539" width="132" height="69" as="geometry"/>
                </mxCell>
                <mxCell id="FPNfaOGOEIjZuPGmD0JC-72" value="" style="endArrow=classic;html=1;rounded=0;entryX=0.6;entryY=0.033;entryDx=0;entryDy=0;exitX=0.097;exitY=1.016;exitDx=0;exitDy=0;exitPerimeter=0;entryPerimeter=0;strokeColor=#e1955f;" parent="1" source="FPNfaOGOEIjZuPGmD0JC-3" target="FPNfaOGOEIjZuPGmD0JC-71" edge="1">
                    <mxGeometry width="50" height="50" relative="1" as="geometry">
                        <mxPoint x="129" y="722" as="sourcePoint"/>
                        <mxPoint x="219.9960000000001" y="618.9960000000001" as="targetPoint"/>
                        <Array as="points"/>
                    </mxGeometry>
                </mxCell>
                <mxCell id="FPNfaOGOEIjZuPGmD0JC-73" value="Item Results" style="rounded=0;whiteSpace=wrap;html=1;fontSize=16;strokeColor=#217893;fillColor=#217893;" parent="1" vertex="1">
                    <mxGeometry x="-43" y="737" width="120" height="60" as="geometry"/>
                </mxCell>
                <mxCell id="FPNfaOGOEIjZuPGmD0JC-74" value="" style="endArrow=classic;html=1;rounded=0;exitX=0.412;exitY=1.085;exitDx=0;exitDy=0;exitPerimeter=0;labelBackgroundColor=#fa8a3e;labelBorderColor=#fa8a3e;strokeColor=#e1955f;entryX=0.5;entryY=0;entryDx=0;entryDy=0;" parent="1" source="FPNfaOGOEIjZuPGmD0JC-71" target="FPNfaOGOEIjZuPGmD0JC-73" edge="1">
                    <mxGeometry width="50" height="50" relative="1" as="geometry">
                        <mxPoint x="121" y="581" as="sourcePoint"/>
                        <mxPoint x="-11" y="715" as="targetPoint"/>
                    </mxGeometry>
                </mxCell>
                <mxCell id="FPNfaOGOEIjZuPGmD0JC-79" value="&lt;span style=&quot;font-size: 16px;&quot;&gt;View Auction&lt;br&gt;Results&lt;/span&gt;" style="ellipse;whiteSpace=wrap;html=1;strokeColor=#217893;" parent="1" vertex="1">
                    <mxGeometry x="154" y="591.03" width="132" height="69" as="geometry"/>
                </mxCell>
                <mxCell id="FPNfaOGOEIjZuPGmD0JC-80" value="" style="endArrow=classic;html=1;rounded=0;entryX=0.614;entryY=-0.039;entryDx=0;entryDy=0;exitX=0.377;exitY=1.03;exitDx=0;exitDy=0;exitPerimeter=0;entryPerimeter=0;strokeColor=#e1955f;" parent="1" target="FPNfaOGOEIjZuPGmD0JC-79" edge="1">
                    <mxGeometry width="50" height="50" relative="1" as="geometry">
                        <mxPoint x="287.7930000000001" y="483.9999999999998" as="sourcePoint"/>
                        <mxPoint x="252.9960000000001" y="737.0260000000001" as="targetPoint"/>
                        <Array as="points"/>
                    </mxGeometry>
                </mxCell>
                <mxCell id="FPNfaOGOEIjZuPGmD0JC-81" value="Auction Results" style="rounded=0;whiteSpace=wrap;html=1;fontSize=16;strokeColor=#217893;fillColor=#217893;" parent="1" vertex="1">
                    <mxGeometry x="121" y="811.03" width="120" height="60" as="geometry"/>
                </mxCell>
                <mxCell id="FPNfaOGOEIjZuPGmD0JC-82" value="" style="endArrow=classic;html=1;rounded=0;entryX=0.581;entryY=0.002;entryDx=0;entryDy=0;exitX=0.5;exitY=1;exitDx=0;exitDy=0;labelBackgroundColor=#fa8a3e;labelBorderColor=#fa8a3e;strokeColor=#e1955f;entryPerimeter=0;" parent="1" source="FPNfaOGOEIjZuPGmD0JC-79" target="FPNfaOGOEIjZuPGmD0JC-81" edge="1">
                    <mxGeometry width="50" height="50" relative="1" as="geometry">
                        <mxPoint x="154" y="699.03" as="sourcePoint"/>
                        <mxPoint x="55" y="594.03" as="targetPoint"/>
                    </mxGeometry>
                </mxCell>
                <mxCell id="FPNfaOGOEIjZuPGmD0JC-84" value="" style="endArrow=classic;startArrow=classic;html=1;rounded=0;entryX=1;entryY=0;entryDx=0;entryDy=0;exitX=0.5;exitY=1;exitDx=0;exitDy=0;strokeColor=#e1955f;" parent="1" source="FPNfaOGOEIjZuPGmD0JC-48" target="FPNfaOGOEIjZuPGmD0JC-45" edge="1">
                    <mxGeometry width="50" height="50" relative="1" as="geometry">
                        <mxPoint x="681" y="462" as="sourcePoint"/>
                        <mxPoint x="615" y="341" as="targetPoint"/>
                    </mxGeometry>
                </mxCell>
                <mxCell id="2" value="" style="endArrow=classic;html=1;rounded=0;exitX=0.5;exitY=1;exitDx=0;exitDy=0;entryX=0.5;entryY=0;entryDx=0;entryDy=0;fillColor=#171D05;strokeColor=#e1955f;" edge="1" parent="1" source="FPNfaOGOEIjZuPGmD0JC-14" target="FPNfaOGOEIjZuPGmD0JC-6">
                    <mxGeometry width="50" height="50" relative="1" as="geometry">
                        <mxPoint x="11" y="176" as="sourcePoint"/>
                        <mxPoint x="110.10400000000027" y="284.13700000000017" as="targetPoint"/>
                        <Array as="points"/>
                    </mxGeometry>
                </mxCell>
                <mxCell id="3" value="" style="endArrow=classic;html=1;rounded=0;exitX=0.234;exitY=-0.023;exitDx=0;exitDy=0;exitPerimeter=0;strokeColor=#e1955f;" edge="1" parent="1" source="FPNfaOGOEIjZuPGmD0JC-3" target="FPNfaOGOEIjZuPGmD0JC-6">
                    <mxGeometry width="50" height="50" relative="1" as="geometry">
                        <mxPoint x="220.00399999999962" y="416.41100000000023" as="sourcePoint"/>
                        <mxPoint x="143" y="341" as="targetPoint"/>
                        <Array as="points"/>
                    </mxGeometry>
                </mxCell>
                <mxCell id="10" value="&lt;span style=&quot;font-size: 16px;&quot;&gt;View&amp;nbsp; Reports&lt;/span&gt;" style="ellipse;whiteSpace=wrap;html=1;strokeColor=#217893;" vertex="1" parent="1">
                    <mxGeometry x="-22" y="418" width="132" height="69" as="geometry"/>
                </mxCell>
                <mxCell id="11" value="" style="endArrow=classic;html=1;rounded=0;entryX=1;entryY=0.5;entryDx=0;entryDy=0;strokeColor=#e1955f;" edge="1" parent="1" target="10">
                    <mxGeometry width="50" height="50" relative="1" as="geometry">
                        <mxPoint x="220" y="440" as="sourcePoint"/>
                        <mxPoint x="76.9960000000001" y="563.9960000000001" as="targetPoint"/>
                        <Array as="points"/>
                    </mxGeometry>
                </mxCell>
                <mxCell id="12" value="Reports" style="rounded=0;whiteSpace=wrap;html=1;fontSize=16;strokeColor=#217893;fillColor=#217893;" vertex="1" parent="1">
                    <mxGeometry x="-297" y="440" width="120" height="60" as="geometry"/>
                </mxCell>
                <mxCell id="13" value="" style="endArrow=classic;html=1;rounded=0;entryX=1;entryY=0.5;entryDx=0;entryDy=0;exitX=0;exitY=0.5;exitDx=0;exitDy=0;labelBackgroundColor=#fa8a3e;labelBorderColor=#fa8a3e;strokeColor=#e1955f;" edge="1" parent="1" source="10" target="12">
                    <mxGeometry width="50" height="50" relative="1" as="geometry">
                        <mxPoint x="-22" y="526" as="sourcePoint"/>
                        <mxPoint x="-121" y="421" as="targetPoint"/>
                    </mxGeometry>
                </mxCell>
            </root>
        </mxGraphModel>
    </diagram>
</mxfile>